# xmcd
#
# Track frame offsets:
#	150
#	20841
#	37355
#	54492
#	71478
#	93971
#	113837
#	134010
#	152859
#	173536
#	193843
#	210891
#	227599
#	242153
#	260185
#
# Disc length: 3951 seconds
#
# Revision: 0
# Processed by: cddbd v1.4b42PL1 Copyright (c) Steve Scherf et al.
# Submitted via: EasyCDDAExtractor 4.5.0.2
#
DISCID=d90f6d0f
DTITLE=Lil Zane - Young World: Future
DYEAR=2000
DGENRE=Rap
TTITLE0=Top Down
TTITLE1=M.O.N.E.Y.
TTITLE2=Callin' Me
TTITLE3=What Must I Do
TTITLE4=Die Famous
TTITLE5=Partners Come Along Too
TTITLE6=None Tonight
TTITLE7=Ride On Em
TTITLE8=Ways Of The World
TTITLE9=All About The Fun
TTITLE10=What's Up
TTITLE11=You Must Really Love Me
TTITLE12=Too Hot To Stop
TTITLE13=Beautiful Feelin'
TTITLE14=We Ain't The One
EXTD=
EXTT0=
EXTT1=
EXTT2=
EXTT3=
EXTT4=
EXTT5=
EXTT6=
EXTT7=
EXTT8=
EXTT9=
EXTT10=
EXTT11=
EXTT12=
EXTT13=
EXTT14=
PLAYORDER=
